<svg width="213" height="206" viewBox="0 0 213 206" fill="none" xmlns="http://www.w3.org/2000/svg">
<path d="M46.0399 44.5955C33.5125 52.4776 20.6049 60.7323 11.8732 73.933C6.62945 81.8698 3.13559 91.3174 1.29579 101.148C-1.85565 117.927 0.47746 137.38 11.3189 148.919C15.0913 152.952 19.7053 155.8 24.4644 157.987C34.3294 162.513 44.933 164.365 55.4885 163.405C64.1564 162.608 72.8098 159.918 81.4342 161.2C91.9535 162.759 101.138 170.005 110.938 174.777C123.115 180.683 136.374 182.813 149.449 180.964C152.745 180.492 156.082 179.737 158.981 177.829C162.423 175.563 164.974 171.861 167.687 168.477C173.805 160.819 181.021 154.491 189.004 149.784C193.192 147.316 197.629 145.269 201.265 141.796C210.841 132.669 212.48 116.338 211.923 101.855C211.366 87.3729 208.595 71.3865 198.754 62.5918C196.558 60.6298 194.085 59.1087 191.955 57.0408C184.852 50.1431 182.727 38.5968 178.177 29.1594C167.974 8.05616 145.209 -1.18293 124.713 1.42849C95.3429 5.1713 71.2892 28.7117 46.0399 44.5955Z" fill="#00FF45"/>
<path d="M199.917 102.005C199.65 104.91 196.606 109.788 192.395 115.27C185.494 124.239 175.468 134.818 169.438 140.981C166.327 144.163 164.281 146.17 164.281 146.17V90.9539C164.281 90.9539 171.583 79.9408 176.887 79.2332C182.192 78.5257 192.897 85.8336 192.897 85.8336C192.897 85.8336 200.81 91.9007 199.917 102.005Z" fill="#68E1FD"/>
<path d="M192.395 115.27C185.494 124.239 175.468 134.818 169.438 140.981C168.988 140.137 168.898 138.988 168.858 137.949C168.698 132.757 168.736 127.558 168.776 122.363C168.814 117.318 168.852 112.276 169.122 107.241C169.377 102.551 169.865 97.7558 171.687 93.5687C172.098 94.0016 172.438 94.5209 172.688 95.1C174.984 99.7452 176.435 104.869 177.885 109.955C178.603 112.462 179.321 114.978 180.039 117.506C181.648 116.465 183.086 115.093 184.284 113.455C185.387 112.016 186.371 110.461 187.383 108.936C188.091 107.87 189.473 104.835 190.575 105.976C192.363 107.812 192.508 112.013 192.395 115.27Z" fill="url(#paint0_linear_59_395)"/>
<path d="M169.641 18.2545H50.783V180.398H169.641V18.2545Z" fill="#68E1FD"/>
<path d="M169.641 18.2545H50.783V180.398H169.641V18.2545Z" fill="url(#paint1_linear_59_395)"/>
<path d="M153.306 26.0922L50.783 36.9173C51.2444 36.9173 50.783 21.8777 50.783 18.2545H158.878V19.526C158.878 21.2669 158.291 22.9365 157.246 24.1678C156.202 25.3991 154.784 26.0913 153.306 26.0922Z" fill="url(#paint2_linear_59_395)"/>
<path d="M169.641 36.9173H50.783V199.061H169.641V36.9173Z" fill="#68E1FD"/>
<path d="M67.6806 36.9173H50.783V199.061H67.6806V36.9173Z" fill="url(#paint3_linear_59_395)"/>
<path d="M77.9475 67.2221H57.4167V91.405H77.9475V67.2221Z" fill="white"/>
<path d="M99.6188 67.2221H79.0879V91.405H99.6188V67.2221Z" fill="white"/>
<path d="M121.293 67.2221H100.762V91.405H121.293V67.2221Z" fill="white"/>
<path d="M142.964 67.2221H122.433V91.405H142.964V67.2221Z" fill="white"/>
<path d="M77.9475 92.4681H57.4167V116.651H77.9475V92.4681Z" fill="white"/>
<path d="M99.6188 92.4681H79.0879V116.651H99.6188V92.4681Z" fill="white"/>
<path d="M121.293 92.4681H100.762V116.651H121.293V92.4681Z" fill="white"/>
<path d="M142.964 92.4681H122.433V116.651H142.964V92.4681Z" fill="white"/>
<path d="M77.9475 117.714H57.4167V141.897H77.9475V117.714Z" fill="white"/>
<path d="M99.6188 117.714H79.0879V141.897H99.6188V117.714Z" fill="white"/>
<path d="M121.293 117.714H100.762V141.897H121.293V117.714Z" fill="white"/>
<path d="M142.964 117.714H122.433V141.897H142.964V117.714Z" fill="white"/>
<path d="M77.9475 142.96H57.4167V167.143H77.9475V142.96Z" fill="white"/>
<path d="M99.6188 142.96H79.0879V167.143H99.6188V142.96Z" fill="white"/>
<path d="M121.293 142.96H100.762V167.143H121.293V142.96Z" fill="white"/>
<path d="M142.964 142.96H122.433V167.143H142.964V142.96Z" fill="white"/>
<path d="M77.9475 168.206H57.4167V192.389H77.9475V168.206Z" fill="white"/>
<path d="M99.6188 168.206H79.0879V192.389H99.6188V168.206Z" fill="white"/>
<path d="M121.293 168.206H100.762V192.389H121.293V168.206Z" fill="white"/>
<path d="M164.273 67.2221H143.742V91.405H164.273V67.2221Z" fill="white"/>
<path d="M164.273 41.9761H143.742V66.159H164.273V41.9761Z" fill="white"/>
<path d="M142.964 41.9761H122.433V66.159H142.964V41.9761Z" fill="white"/>
<path d="M164.273 92.4681H143.742V116.651H164.273V92.4681Z" fill="white"/>
<path d="M164.273 117.714H143.742V141.897H164.273V117.714Z" fill="white"/>
<path d="M164.273 142.96H143.742V167.143H164.273V142.96Z" fill="white"/>
<path d="M59.9906 11.6986V24.8104C59.9906 25.518 60.7538 26.0922 61.6911 26.0922C62.6314 26.0922 63.3916 25.518 63.3916 24.8104V11.6986C63.3916 10.9911 62.6314 10.4168 61.6911 10.4168C60.7538 10.4168 59.9906 10.9911 59.9906 11.6986Z" fill="#68E1FD"/>
<path d="M76.247 11.6986V24.8104C76.247 25.518 77.0073 26.0922 77.9475 26.0922C78.8877 26.0922 79.648 25.518 79.648 24.8104V11.6986C79.648 10.9911 78.8877 10.4168 77.9475 10.4168C77.0073 10.4168 76.247 10.9911 76.247 11.6986Z" fill="#68E1FD"/>
<path d="M92.5033 11.6986V24.8104C92.5033 25.518 93.2636 26.0922 94.2038 26.0922C95.1441 26.0922 95.9043 25.518 95.9043 24.8104V11.6986C95.9043 10.9911 95.1441 10.4168 94.2038 10.4168C93.2636 10.4168 92.5033 10.9911 92.5033 11.6986Z" fill="#68E1FD"/>
<path d="M108.76 11.6986V24.8104C108.76 25.518 109.52 26.0922 110.46 26.0922C111.397 26.0922 112.161 25.518 112.161 24.8104V11.6986C112.161 10.9911 111.397 10.4168 110.46 10.4168C109.52 10.4168 108.76 10.9911 108.76 11.6986Z" fill="#68E1FD"/>
<path d="M125.013 11.6986V24.8104C125.013 25.518 125.776 26.0922 126.717 26.0922C127.654 26.0922 128.417 25.518 128.417 24.8104V11.6986C128.417 10.9911 127.654 10.4168 126.717 10.4168C125.776 10.4168 125.013 10.9911 125.013 11.6986Z" fill="#68E1FD"/>
<path d="M141.27 11.6986V24.8104C141.27 25.518 142.033 26.0922 142.97 26.0922C143.91 26.0922 144.673 25.518 144.673 24.8104V11.6986C144.673 10.9911 143.91 10.4168 142.97 10.4168C142.033 10.4168 141.27 10.9911 141.27 11.6986Z" fill="#68E1FD"/>
<path d="M157.178 11.6986V24.8104C157.178 25.518 157.941 26.0922 158.878 26.0922C159.818 26.0922 160.579 25.518 160.579 24.8104V11.6986C160.579 10.9911 159.818 10.4168 158.878 10.4168C157.941 10.4168 157.178 10.9911 157.178 11.6986Z" fill="#68E1FD"/>
<path d="M172.349 18.2545H169.644V199.061H172.349V18.2545Z" fill="url(#paint4_linear_59_395)"/>
<path d="M127.175 45.5206C127.176 45.9015 127.08 46.274 126.901 46.591C126.722 46.908 126.467 47.1552 126.168 47.3013C125.869 47.4473 125.54 47.4857 125.223 47.4116C124.906 47.3375 124.615 47.1541 124.386 46.8848C124.157 46.6154 124.002 46.2722 123.939 45.8986C123.876 45.525 123.908 45.1378 124.032 44.786C124.156 44.4342 124.366 44.1337 124.635 43.9225C124.905 43.7113 125.221 43.599 125.544 43.5996C125.976 43.6005 126.391 43.8032 126.697 44.1633C127.002 44.5233 127.174 45.0114 127.175 45.5206Z" fill="url(#paint5_linear_59_395)"/>
<path d="M127.175 70.77C127.176 71.1509 127.08 71.5235 126.901 71.8404C126.722 72.1574 126.467 72.4046 126.168 72.5507C125.869 72.6968 125.54 72.7352 125.223 72.661C124.906 72.5869 124.615 72.4035 124.386 72.1342C124.157 71.8649 124.002 71.5217 123.939 71.148C123.876 70.7744 123.908 70.3872 124.032 70.0354C124.156 69.6837 124.366 69.3832 124.635 69.172C124.905 68.9608 125.221 68.8484 125.544 68.8491C125.976 68.85 126.391 69.0526 126.697 69.4127C127.002 69.7728 127.174 70.2608 127.175 70.77Z" fill="url(#paint6_linear_59_395)"/>
<path d="M131.165 70.77C131.166 71.1509 131.07 71.5235 130.891 71.8404C130.712 72.1574 130.457 72.4046 130.158 72.5507C129.859 72.6968 129.531 72.7352 129.213 72.661C128.896 72.5869 128.605 72.4035 128.376 72.1342C128.147 71.8649 127.992 71.5217 127.929 71.148C127.866 70.7744 127.899 70.3872 128.023 70.0354C128.147 69.6837 128.356 69.3832 128.626 69.172C128.895 68.9608 129.211 68.8484 129.534 68.8491C129.967 68.85 130.381 69.0526 130.687 69.4127C130.992 69.7728 131.164 70.2608 131.165 70.77Z" fill="url(#paint7_linear_59_395)"/>
<path d="M135.178 70.77C135.179 71.1509 135.084 71.5235 134.904 71.8404C134.725 72.1574 134.47 72.4046 134.171 72.5507C133.873 72.6968 133.544 72.7352 133.227 72.661C132.909 72.5869 132.618 72.4035 132.389 72.1342C132.161 71.8649 132.005 71.5217 131.942 71.148C131.879 70.7744 131.912 70.3872 132.036 70.0354C132.16 69.6837 132.37 69.3832 132.639 69.172C132.908 68.9608 133.224 68.8484 133.548 68.8491C133.98 68.85 134.394 69.0526 134.7 69.4127C135.006 69.7728 135.178 70.2608 135.178 70.77Z" fill="url(#paint8_linear_59_395)"/>
<path d="M127.175 121.624C127.175 122.005 127.079 122.377 126.9 122.694C126.72 123.01 126.465 123.257 126.166 123.403C125.867 123.548 125.538 123.586 125.221 123.512C124.904 123.437 124.613 123.253 124.385 122.984C124.157 122.714 124.001 122.371 123.939 121.998C123.876 121.624 123.909 121.237 124.033 120.886C124.157 120.534 124.367 120.234 124.636 120.023C124.905 119.812 125.221 119.699 125.544 119.7C125.759 119.7 125.971 119.75 126.169 119.847C126.367 119.943 126.547 120.085 126.698 120.264C126.85 120.443 126.97 120.655 127.052 120.888C127.134 121.122 127.175 121.372 127.175 121.624Z" fill="url(#paint9_linear_59_395)"/>
<path d="M60.8641 123.545C61.7648 123.545 62.495 122.685 62.495 121.624C62.495 120.563 61.7648 119.703 60.8641 119.703C59.9634 119.703 59.2332 120.563 59.2332 121.624C59.2332 122.685 59.9634 123.545 60.8641 123.545Z" fill="#FF2235"/>
<path d="M131.165 121.624C131.165 122.005 131.069 122.377 130.89 122.694C130.71 123.01 130.455 123.257 130.156 123.403C129.857 123.548 129.529 123.586 129.212 123.512C128.895 123.437 128.603 123.253 128.375 122.984C128.147 122.714 127.991 122.371 127.929 121.998C127.866 121.624 127.899 121.237 128.023 120.886C128.147 120.534 128.357 120.234 128.626 120.023C128.895 119.812 129.211 119.699 129.534 119.7C129.749 119.7 129.961 119.75 130.159 119.847C130.357 119.943 130.537 120.085 130.688 120.264C130.84 120.443 130.96 120.655 131.042 120.888C131.124 121.122 131.166 121.372 131.165 121.624Z" fill="url(#paint10_linear_59_395)"/>
<path d="M135.178 121.624C135.178 122.005 135.083 122.377 134.903 122.694C134.723 123.01 134.468 123.257 134.169 123.403C133.871 123.548 133.542 123.586 133.225 123.512C132.908 123.437 132.617 123.253 132.388 122.984C132.16 122.714 132.005 122.371 131.942 121.998C131.879 121.624 131.912 121.237 132.036 120.886C132.16 120.534 132.37 120.234 132.639 120.023C132.908 119.812 133.224 119.699 133.548 119.7C133.762 119.7 133.974 119.75 134.172 119.847C134.37 119.943 134.55 120.085 134.702 120.264C134.853 120.443 134.973 120.655 135.055 120.888C135.137 121.122 135.179 121.372 135.178 121.624Z" fill="url(#paint11_linear_59_395)"/>
<path d="M199.722 69.9429C199.267 72.1373 199.876 75.1794 199.011 77.1926C197.56 80.5765 193.318 82.8222 192.691 86.5377C192.653 86.753 187.932 89.4328 185.497 88.5168C184.223 88.0416 183.576 86.5787 184.557 83.27C184.864 82.2446 186.588 81.8617 187.053 80.9081L186.957 80.8226C184.6 78.7274 184.345 74.2873 184.833 71.3238C185.32 68.3603 186.437 65.513 187.636 62.8059C188.559 60.7209 190.642 59.5895 192.639 59.6271C195.149 59.6783 197.798 60.861 199.104 63.387C200.102 65.3114 200.175 67.7485 199.722 69.9429Z" fill="url(#paint12_linear_59_395)"/>
<path d="M188.126 53.9804C186.841 54.7802 185.474 55.7236 184.035 55.4673C183.998 55.8744 184.055 56.2856 184.198 56.6583C184.342 57.0309 184.568 57.3514 184.853 57.5865L183.959 57.8223C183.922 57.8249 183.886 57.8374 183.854 57.8587C183.822 57.88 183.794 57.9096 183.773 57.9454C183.762 57.9835 183.758 58.0241 183.762 58.0642C183.765 58.1043 183.776 58.1431 183.794 58.1778C184.014 58.782 184.375 59.3 184.835 59.6715C184.676 60.0748 184.098 59.986 183.901 60.3551C183.857 60.4647 183.835 60.5844 183.835 60.7055C183.835 60.8266 183.857 60.9462 183.901 61.0558C184.1 61.6936 184.441 62.2566 184.888 62.6863C184.354 63.3699 184.687 64.6346 185.425 64.9456C186.162 65.2567 187.047 64.6653 187.299 63.7869C187.332 64.1822 187.255 64.5795 187.079 64.9183C189.513 65.3695 192.116 65.7933 194.357 64.5765C194.252 64.8497 194.195 65.1449 194.188 65.4446C194.729 65.6441 195.302 65.6864 195.86 65.5677C195.976 66.9756 195.869 68.3966 195.543 69.7583C195.343 70.606 195.056 71.4263 194.928 72.2911C194.767 73.1619 194.899 74.0724 195.297 74.8307C195.683 74.7897 195.955 74.3624 196.103 73.942C196.21 73.5038 196.371 73.0867 196.582 72.7047C197.163 71.9048 198.37 72.1988 198.837 73.0841C199.304 73.9694 199.127 75.1589 198.68 76.051C198.404 76.5771 198.039 77.0307 197.608 77.3836C197.176 77.7364 196.688 77.9809 196.173 78.1018C196.257 79.0555 196.344 80.0091 196.428 80.9594C197.958 79.2503 199.67 77.784 201.045 75.9143C202.421 74.0446 203.463 71.6519 203.286 69.184C203.178 67.663 202.615 66.2171 202.572 64.6893C202.551 64.0056 202.639 63.3049 202.615 62.6145C202.561 61.5144 202.234 60.4574 201.674 59.5745C201.114 58.6916 200.347 58.0217 199.467 57.648C198.727 57.3506 197.911 57.2652 197.256 56.7627C196.44 56.1406 196.016 54.9819 195.207 54.3461C194.336 53.6625 192.984 53.3822 191.971 53.0438C190.654 52.6131 189.284 53.266 188.126 53.9804Z" fill="#3F3D56"/>
<path d="M169.87 86.3223C169.767 86.3971 169.678 86.4965 169.609 86.6143C169.54 86.732 169.493 86.8654 169.47 87.006C169.481 87.1533 169.533 87.2922 169.617 87.4019C169.702 87.5116 169.814 87.5861 169.937 87.6144C170.185 87.6656 170.44 87.6516 170.683 87.5734L172.157 87.2316C171.361 87.7546 170.7 88.5225 170.245 89.4533C170.191 89.5605 170.165 89.6838 170.17 89.8082C170.174 89.9326 170.209 90.0528 170.271 90.154C170.468 90.448 170.802 90.3318 171.069 90.2087L172.349 89.6071L171.478 90.6018C171.207 90.8858 170.971 91.2125 170.776 91.5725C170.692 91.742 170.629 91.9251 170.59 92.116C170.575 92.1968 170.577 92.281 170.598 92.3603C170.618 92.4395 170.656 92.511 170.708 92.5676C170.759 92.6243 170.822 92.6642 170.89 92.6833C170.959 92.7024 171.03 92.7001 171.098 92.6766C171.63 92.5003 172.125 92.1927 172.549 91.7742C172.234 92.2938 171.884 92.7819 171.501 93.2337C171.118 93.6888 170.902 94.3021 170.898 94.9428C170.899 95.0116 170.918 95.0784 170.953 95.1342C170.996 95.1843 171.052 95.2156 171.112 95.223C171.585 95.3153 172.015 94.9086 172.372 94.5394L173.686 93.1346C173.898 92.9303 174.085 92.6921 174.241 92.427C174.329 92.2743 174.378 92.0953 174.383 91.9109C174.374 91.7938 174.34 91.6813 174.284 91.5843C174.227 91.4873 174.15 91.4091 174.061 91.3572C173.971 91.3054 173.872 91.2815 173.772 91.2881C173.673 91.2947 173.576 91.3314 173.492 91.3948C173.53 91.0974 173.628 90.8205 173.689 90.53C173.765 90.2437 173.748 89.9348 173.643 89.6618C173.586 89.5285 173.489 89.4252 173.371 89.3726C173.253 89.32 173.122 89.3219 173.004 89.3781C173.159 89.0225 173.257 88.6368 173.295 88.2399C173.31 88.0393 173.279 87.8375 173.204 87.6567C173.128 87.4758 173.012 87.3228 172.868 87.2145C172.788 87.1778 172.715 87.1232 172.653 87.0538C172.537 86.8863 172.63 86.6471 172.679 86.4386C172.728 86.2811 172.742 86.1118 172.72 85.9464C172.698 85.7809 172.641 85.6246 172.554 85.492C172.467 85.3594 172.354 85.2548 172.223 85.1878C172.093 85.1208 171.95 85.0937 171.809 85.1089C171.049 85.2149 170.425 85.7686 169.87 86.3223Z" fill="url(#paint13_linear_59_395)"/>
<path d="M193.68 99.1641C197.018 95.6913 201.15 98.3233 199.699 103.283C196.562 114.012 189.995 138.595 183.759 138.595C175.634 138.595 172.349 121.624 172.349 121.624L176.101 112.679C176.101 112.679 181.408 126.396 184.081 122.684C186.754 118.972 188.332 104.91 193.527 99.3248L193.68 99.1641Z" fill="#68E1FD"/>
<path d="M174.87 112.088C174.821 111.292 174.809 110.493 174.836 109.695C174.818 106.214 173.945 102.812 172.323 99.9024C172.152 100.191 172.078 100.545 172.117 100.894L172.16 109.972C172.186 110.725 172.143 111.479 172.032 112.221C171.934 112.761 171.765 113.277 171.635 113.811C171.36 114.919 171.261 116.078 171.345 117.229C171.369 117.847 171.511 118.451 171.76 118.996C171.887 119.267 172.067 119.498 172.285 119.672C172.503 119.845 172.752 119.955 173.013 119.994C173.184 119.994 173.884 118.285 173.985 118.052C174.295 117.369 174.585 116.68 174.856 115.985C175.056 115.458 175.483 114.682 175.407 114.091C175.323 113.428 174.94 112.816 174.87 112.088Z" fill="url(#paint14_linear_59_395)"/>
<path d="M190.378 83.2255C189.676 84.1553 188.979 85.0884 188.277 86.0215C187.74 86.8165 187.102 87.5084 186.385 88.0724C186.106 88.2665 185.808 88.4181 185.497 88.5236C184.223 88.0485 183.576 86.5855 184.557 83.2768C184.864 82.2514 186.588 81.8686 187.053 80.9149L186.957 80.8295C187.29 81.0152 187.642 81.1508 188.004 81.2328C188.759 81.3661 190.616 80.6757 190.845 81.9916C190.927 82.4462 190.654 82.8735 190.378 83.2255Z" fill="url(#paint15_linear_59_395)"/>
<path d="M106 154.814L108.925 160.167C109.002 160.307 109.105 160.423 109.226 160.508C109.348 160.593 109.484 160.643 109.625 160.654C109.766 160.666 109.907 160.639 110.038 160.575C110.168 160.511 110.284 160.412 110.376 160.286L118.432 149.348C118.546 149.194 118.62 149.005 118.645 148.802C118.67 148.6 118.645 148.393 118.573 148.206C118.501 148.02 118.386 147.862 118.24 147.751C118.094 147.64 117.923 147.581 117.75 147.581H117.683C117.55 147.581 117.419 147.616 117.299 147.682C117.178 147.748 117.072 147.844 116.987 147.964L110.684 156.865C110.593 156.993 110.479 157.094 110.349 157.161C110.219 157.227 110.078 157.257 109.937 157.247C109.796 157.238 109.658 157.189 109.536 157.105C109.414 157.022 109.31 156.905 109.233 156.766L107.518 153.689C107.422 153.519 107.288 153.384 107.129 153.301C106.971 153.218 106.795 153.19 106.624 153.221C106.479 153.25 106.343 153.32 106.226 153.425C106.11 153.53 106.017 153.667 105.955 153.824C105.894 153.981 105.866 154.153 105.874 154.325C105.881 154.498 105.925 154.666 106 154.814Z" fill="#68E1FD"/>
<path d="M70.7798 181.882L74.4623 186.151C74.5919 186.302 74.6805 186.494 74.7169 186.704C74.7533 186.914 74.7359 187.132 74.6668 187.33C74.5977 187.528 74.4802 187.698 74.329 187.817C74.1779 187.937 74.0001 188 73.8181 188H73.6614C73.4181 188 73.1846 187.887 73.0114 187.686L69.4276 183.461C69.2552 183.259 69.022 183.146 68.779 183.146C68.5359 183.146 68.3028 183.259 68.1304 183.461L64.5466 187.686C64.3747 187.887 64.142 188 63.8995 188H63.7399C63.5579 188 63.3801 187.937 63.229 187.817C63.0778 187.698 62.9602 187.528 62.8912 187.33C62.8221 187.132 62.8047 186.914 62.8411 186.704C62.8775 186.494 62.9661 186.302 63.0956 186.151L66.781 181.882C66.867 181.782 66.9353 181.663 66.9819 181.531C67.0285 181.4 67.0525 181.259 67.0525 181.116C67.0525 180.974 67.0285 180.833 66.9819 180.701C66.9353 180.57 66.867 180.451 66.781 180.351L63.0608 175.969C62.9331 175.818 62.8462 175.625 62.811 175.416C62.7758 175.207 62.794 174.99 62.8632 174.793C62.9324 174.596 63.0495 174.428 63.1998 174.309C63.3502 174.191 63.527 174.127 63.7079 174.126C63.9478 174.125 64.1782 174.236 64.3493 174.434L68.1217 178.816C68.2932 179.014 68.524 179.126 68.7645 179.126C69.0049 179.126 69.2358 179.014 69.4072 178.816L73.1797 174.434C73.3508 174.236 73.5812 174.125 73.821 174.126C74.0022 174.126 74.1794 174.189 74.3302 174.308C74.481 174.426 74.5986 174.595 74.6681 174.792C74.7377 174.989 74.7561 175.206 74.721 175.415C74.6859 175.625 74.5989 175.817 74.471 175.969L70.7508 180.351C70.6667 180.453 70.6007 180.574 70.5566 180.707C70.5124 180.839 70.4911 180.981 70.4938 181.123C70.4965 181.266 70.5232 181.406 70.5723 181.536C70.6214 181.667 70.6919 181.784 70.7798 181.882Z" fill="#68E1FD"/>
<path d="M37.9392 168.459H38.8388L39.2886 192.406L38.8388 188.462H37.9392V168.459Z" fill="#68E1FD"/>
<path d="M39.7384 168.459H38.8388V188.462H39.7384V168.459Z" fill="#68E1FD"/>
<path d="M31.5232 171.272C31.0153 173.121 32.6201 176.782 34.1755 178.676C35.7309 180.569 36.7872 180.135 38.3716 179.595C38.8794 177.746 39.3118 176.485 37.7535 174.591C36.1952 172.697 33.1076 170.732 31.5232 171.272Z" fill="#68E1FD"/>
<path d="M46.2966 171.364C44.7267 170.763 41.6188 172.656 40.0112 174.489C38.4035 176.321 38.7721 177.565 39.2306 179.431C40.8005 180.029 41.8713 180.539 43.4789 178.703C45.0866 176.868 46.758 173.231 46.2966 171.364Z" fill="#68E1FD"/>
<path d="M38.8388 163.629H34.8226C34.8226 166.989 36.6189 169.713 38.8359 169.713L39.7819 166.729L38.8388 163.629Z" fill="#68E1FD"/>
<path d="M38.8388 163.629H42.8521C42.8521 166.989 41.0558 169.713 38.8388 169.713L38.8388 163.629Z" fill="#68E1FD"/>
<path d="M31.2359 156.776C30.728 158.625 32.3328 162.289 33.8911 164.18C35.4494 166.07 36.5028 165.643 38.0843 165.099C38.5921 163.25 39.0245 161.989 37.4662 160.095C35.9079 158.201 32.8203 156.236 31.2359 156.776Z" fill="#68E1FD"/>
<path d="M46.0123 156.865C44.4394 156.267 41.3315 158.157 39.7268 159.992C38.122 161.828 38.4848 163.069 38.9433 164.932C40.5132 165.53 41.5869 166.039 43.1916 164.204C44.7964 162.368 46.4708 158.735 46.0123 156.865Z" fill="#68E1FD"/>
<path d="M38.7663 150.962C37.2805 151.81 36.1546 155.706 36.0617 158.341C35.9688 160.977 37.1238 164.077 38.5515 165.051C40.0373 164.203 40.9572 161.196 41.0413 158.557C41.1255 155.918 40.194 151.936 38.7663 150.962Z" fill="#68E1FD"/>
<path d="M30.9022 185.409L32.3183 198.89H38.8678L41.5434 191.22L38.8678 185.033L30.9022 185.409Z" fill="#68E1FD"/>
<path d="M46.8364 185.409L45.4203 198.89H38.8678V185.033L46.8364 185.409Z" fill="#68E1FD"/>
<path d="M41.7871 185.126L41.7146 185.167L39.4917 186.465L38.8852 186.828H30.0374C29.7703 186.828 29.5142 186.703 29.3254 186.48C29.1365 186.258 29.0304 185.956 29.0304 185.642V182.627C29.0304 182.312 29.1365 182.011 29.3254 181.788C29.5142 181.566 29.7703 181.441 30.0374 181.441H38.8852L41.7871 185.126Z" fill="#68E1FD"/>
<path d="M47.7012 186.828H38.8678V181.441H47.7012C47.9682 181.441 48.2243 181.566 48.4132 181.788C48.602 182.011 48.7081 182.312 48.7081 182.627V185.642C48.7081 185.956 48.602 186.258 48.4132 186.48C48.2243 186.703 47.9682 186.828 47.7012 186.828Z" fill="#68E1FD"/>
<path d="M31.5232 171.272C31.0153 173.121 32.6201 176.782 34.1755 178.676C35.7309 180.569 36.7872 180.135 38.3716 179.595C38.8794 177.746 39.3118 176.485 37.7535 174.591C36.1952 172.697 33.1076 170.732 31.5232 171.272Z" fill="url(#paint16_linear_59_395)"/>
<path d="M46.2966 171.364C44.7267 170.763 41.6188 172.656 40.0112 174.489C38.4035 176.321 38.7721 177.565 39.2306 179.431C40.8005 180.029 41.8713 180.539 43.4789 178.703C45.0866 176.868 46.758 173.231 46.2966 171.364Z" fill="url(#paint17_linear_59_395)"/>
<path d="M42.797 164.621C42.4865 167.509 40.8324 169.713 38.8388 169.713V164.508C38.8707 164.648 38.9085 164.788 38.9433 164.935C40.3797 165.482 41.4012 165.957 42.797 164.621Z" fill="url(#paint18_linear_59_395)"/>
<path d="M31.2359 156.776C30.728 158.625 32.3328 162.289 33.8911 164.18C35.4494 166.07 36.5028 165.643 38.0843 165.099C38.5921 163.25 39.0245 161.989 37.4662 160.095C35.9079 158.201 32.8203 156.236 31.2359 156.776Z" fill="url(#paint19_linear_59_395)"/>
<path d="M38.8707 186.828V198.89H32.3183L31.0501 186.828H38.8707Z" fill="url(#paint20_linear_59_395)"/>
<path d="M46.6884 186.828L45.4203 198.89H38.8707V186.828H46.6884Z" fill="url(#paint21_linear_59_395)"/>
<path d="M48.7081 182.764V185.778C48.7081 186.093 48.602 186.395 48.4132 186.617C48.2243 186.84 47.9682 186.965 47.7012 186.965H38.8852V181.578H47.7157C47.9802 181.582 48.2326 181.709 48.4183 181.931C48.604 182.153 48.7081 182.452 48.7081 182.764Z" fill="url(#paint22_linear_59_395)"/>
<path d="M33.0815 198.907L16.4363 202.667C16.1669 202.7 15.9197 202.858 15.7491 203.106C15.5785 203.354 15.4984 203.671 15.5265 203.988C15.5546 204.306 15.6886 204.597 15.8989 204.798C16.1092 204.999 16.3787 205.093 16.6481 205.06H204.65C204.914 205.073 205.173 204.964 205.371 204.755C205.568 204.547 205.689 204.256 205.708 203.945C205.726 203.633 205.641 203.326 205.47 203.087C205.299 202.849 205.056 202.698 204.792 202.667L180.529 199.071H180.39L33.2933 198.901C33.2227 198.894 33.1517 198.897 33.0815 198.907Z" fill="#1D2741"/>
<path d="M43.1916 164.207C43.0552 164.361 42.9247 164.501 42.797 164.621C41.4012 165.957 40.3797 165.482 38.9433 164.935C38.9085 164.788 38.8707 164.648 38.8388 164.508C38.4383 162.87 38.2439 161.684 39.7268 159.996C41.3315 158.16 44.4394 156.27 46.0123 156.868C46.4708 158.735 44.7993 162.375 43.1916 164.207Z" fill="url(#paint23_linear_59_395)"/>
<defs>
<linearGradient id="paint0_linear_59_395" x1="145.437" y1="19.5781" x2="-22.0735" y2="576.173" gradientUnits="userSpaceOnUse">
<stop offset="0.02" stop-opacity="0"/>
<stop offset="0.32" stop-color="#17161F" stop-opacity="0.36"/>
<stop offset="0.76" stop-color="#343247" stop-opacity="0.82"/>
<stop offset="0.99" stop-color="#3F3D56"/>
</linearGradient>
<linearGradient id="paint1_linear_59_395" x1="119.477" y1="-50.5786" x2="112.659" y2="62.0742" gradientUnits="userSpaceOnUse">
<stop offset="0.01"/>
<stop offset="0.1" stop-opacity="0.77"/>
<stop offset="0.99" stop-opacity="0"/>
</linearGradient>
<linearGradient id="paint2_linear_59_395" x1="127.065" y1="840.186" x2="-562.095" y2="280.471" gradientUnits="userSpaceOnUse">
<stop offset="0.01"/>
<stop offset="0.1" stop-opacity="0.77"/>
<stop offset="0.99" stop-opacity="0"/>
</linearGradient>
<linearGradient id="paint3_linear_59_395" x1="480.874" y1="102.9" x2="-1597.18" y2="154.641" gradientUnits="userSpaceOnUse">
<stop offset="0.03" stop-opacity="0"/>
<stop offset="0.62" stop-color="#292838" stop-opacity="0.66"/>
<stop offset="0.99" stop-color="#3F3D56"/>
</linearGradient>
<linearGradient id="paint4_linear_59_395" x1="1146.54" y1="102.794" x2="-1033.94" y2="1818.25" gradientUnits="userSpaceOnUse">
<stop stop-color="#68E1FD"/>
<stop offset="0.01" stop-color="#67DDF9"/>
<stop offset="0.12" stop-color="#5CB3CE"/>
<stop offset="0.24" stop-color="#538EA9"/>
<stop offset="0.37" stop-color="#4C718B"/>
<stop offset="0.5" stop-color="#465A73"/>
<stop offset="0.63" stop-color="#424A63"/>
<stop offset="0.79" stop-color="#404059"/>
<stop offset="0.99" stop-color="#3F3D56"/>
</linearGradient>
<linearGradient id="paint5_linear_59_395" x1="100.174" y1="17.3081" x2="132.979" y2="534.533" gradientUnits="userSpaceOnUse">
<stop stop-color="#183866"/>
<stop offset="1" stop-color="#1A7FC1"/>
</linearGradient>
<linearGradient id="paint6_linear_59_395" x1="100.174" y1="17.3081" x2="132.979" y2="534.714" gradientUnits="userSpaceOnUse">
<stop stop-color="#183866"/>
<stop offset="1" stop-color="#1A7FC1"/>
</linearGradient>
<linearGradient id="paint7_linear_59_395" x1="101.115" y1="17.3081" x2="133.746" y2="534.713" gradientUnits="userSpaceOnUse">
<stop stop-color="#183866"/>
<stop offset="1" stop-color="#1A7FC1"/>
</linearGradient>
<linearGradient id="paint8_linear_59_395" x1="100.362" y1="17.3081" x2="132.992" y2="534.713" gradientUnits="userSpaceOnUse">
<stop stop-color="#183866"/>
<stop offset="1" stop-color="#1A7FC1"/>
</linearGradient>
<linearGradient id="paint9_linear_59_395" x1="100.174" y1="17.3081" x2="132.979" y2="534.714" gradientUnits="userSpaceOnUse">
<stop stop-color="#183866"/>
<stop offset="1" stop-color="#1A7FC1"/>
</linearGradient>
<linearGradient id="paint10_linear_59_395" x1="101.115" y1="17.3081" x2="133.746" y2="534.713" gradientUnits="userSpaceOnUse">
<stop stop-color="#183866"/>
<stop offset="1" stop-color="#1A7FC1"/>
</linearGradient>
<linearGradient id="paint11_linear_59_395" x1="100.362" y1="17.3081" x2="132.993" y2="534.713" gradientUnits="userSpaceOnUse">
<stop stop-color="#183866"/>
<stop offset="1" stop-color="#1A7FC1"/>
</linearGradient>
<linearGradient id="paint12_linear_59_395" x1="266.135" y1="148.013" x2="-30.2969" y2="-38.3888" gradientUnits="userSpaceOnUse">
<stop stop-color="#ECC4D7"/>
<stop offset="0.16" stop-color="#EDCBD5"/>
<stop offset="0.42" stop-color="#EFD4D1"/>
<stop offset="0.7" stop-color="#F2EAC9"/>
</linearGradient>
<linearGradient id="paint13_linear_59_395" x1="0.0019989" y1="103.456" x2="212.02" y2="103.456" gradientUnits="userSpaceOnUse">
<stop stop-color="#ECC4D7"/>
<stop offset="0.42" stop-color="#EFD4D1"/>
<stop offset="1" stop-color="#F2EAC9"/>
</linearGradient>
<linearGradient id="paint14_linear_59_395" x1="0.136972" y1="103.171" x2="212.163" y2="103.171" gradientUnits="userSpaceOnUse">
<stop stop-color="#ECC4D7"/>
<stop offset="0.42" stop-color="#EFD4D1"/>
<stop offset="1" stop-color="#F2EAC9"/>
</linearGradient>
<linearGradient id="paint15_linear_59_395" x1="41.6454" y1="138.977" x2="-307.589" y2="549.624" gradientUnits="userSpaceOnUse">
<stop stop-color="#ECC4D7"/>
<stop offset="0.42" stop-color="#EFD4D1"/>
<stop offset="1" stop-color="#F2EAC9"/>
</linearGradient>
<linearGradient id="paint16_linear_59_395" x1="179.392" y1="-64.9688" x2="62.5965" y2="206.029" gradientUnits="userSpaceOnUse">
<stop offset="0.01"/>
<stop offset="0.1" stop-opacity="0.77"/>
<stop offset="0.99" stop-opacity="0"/>
</linearGradient>
<linearGradient id="paint17_linear_59_395" x1="268.198" y1="120.457" x2="-116.607" y2="70.0243" gradientUnits="userSpaceOnUse">
<stop offset="0.01"/>
<stop offset="0.1" stop-opacity="0.77"/>
<stop offset="0.99" stop-opacity="0"/>
</linearGradient>
<linearGradient id="paint18_linear_59_395" x1="531.911" y1="-170.513" x2="-303.443" y2="435.868" gradientUnits="userSpaceOnUse">
<stop offset="0.01"/>
<stop offset="0.1" stop-opacity="0.77"/>
<stop offset="0.99" stop-opacity="0"/>
</linearGradient>
<linearGradient id="paint19_linear_59_395" x1="418.552" y1="-250.814" x2="-75.7391" y2="355.869" gradientUnits="userSpaceOnUse">
<stop offset="0.01"/>
<stop offset="0.1" stop-opacity="0.77"/>
<stop offset="0.99" stop-opacity="0"/>
</linearGradient>
<linearGradient id="paint20_linear_59_395" x1="-101.09" y1="57.1464" x2="387.469" y2="242.123" gradientUnits="userSpaceOnUse">
<stop offset="0.01"/>
<stop offset="0.1" stop-opacity="0.77"/>
<stop offset="0.99" stop-opacity="0"/>
</linearGradient>
<linearGradient id="paint21_linear_59_395" x1="65.4803" y1="-39.7129" x2="151.428" y2="520.976" gradientUnits="userSpaceOnUse">
<stop offset="0.01"/>
<stop offset="0.1" stop-opacity="0.77"/>
<stop offset="0.99" stop-opacity="0"/>
</linearGradient>
<linearGradient id="paint22_linear_59_395" x1="107.357" y1="-158.788" x2="91.0373" y2="455.807" gradientUnits="userSpaceOnUse">
<stop offset="0.01"/>
<stop offset="0.1" stop-opacity="0.77"/>
<stop offset="0.99" stop-opacity="0"/>
</linearGradient>
<linearGradient id="paint23_linear_59_395" x1="36.3954" y1="152.978" x2="53.0856" y2="168.647" gradientUnits="userSpaceOnUse">
<stop offset="0.01"/>
<stop offset="0.1" stop-opacity="0.77"/>
<stop offset="0.99" stop-opacity="0"/>
</linearGradient>
</defs>
</svg>
